<svg id="Layer_1" data-name="Layer 1" xmlns="http://www.w3.org/2000/svg" viewBox="0 0 250 60.54"><defs><style>.cls-1{fill:#73c353;}.cls-2{fill:#015aa6;}.cls-3{fill:#74777f;}.cls-4{fill:#f26e26;}</style></defs><path class="cls-1" d="M96.47,139.08H106.8l-.47,3h-6.21v4.21h5.19v3h-5.14v4.86H107v3.13H96.47Z" transform="translate(-24.3 -120.26)"/><path class="cls-1" d="M121.53,138.84c4.83,0,7.8,3.53,7.8,9.22,0,4.09-1.43,7.15-4,8.61a6.92,6.92,0,0,1-3.63.83c-2.74,0-4.51-.75-5.9-2.55a10.78,10.78,0,0,1-2.08-6.74c0-3.91,1.51-7,4.1-8.48A8,8,0,0,1,121.53,138.84Zm0,2.82a3.14,3.14,0,0,0-2.82,1.59,10.54,10.54,0,0,0-.91,5c0,3.13.55,5.07,1.61,5.88a3.68,3.68,0,0,0,2.17.62c2.53,0,3.6-1.93,3.6-6.55a14.31,14.31,0,0,0-.47-4.2A3.28,3.28,0,0,0,121.48,141.66Z" transform="translate(-24.3 -120.26)"/><path class="cls-2" d="M141.22,139.08V153.7a14.58,14.58,0,0,1-.26,3.54c-.63,3.38-4.22,4.56-7.62,5l0-3.55c2.28-.39,3.71-.86,4-2.3a12.72,12.72,0,0,0,.23-2.31v-15Z" transform="translate(-24.3 -120.26)"/><path class="cls-2" d="M165.26,148.06c0,4.09-1.41,7.17-4,8.61a6.92,6.92,0,0,1-3.63.83c-2.74,0-4.51-.75-5.89-2.55a10.73,10.73,0,0,1-2.09-6.74c0-3.91,1.48-7,4.09-8.48a8.12,8.12,0,0,1,3.76-.89C162.29,138.84,165.26,142.37,165.26,148.06Zm-10.67-4.81a10.54,10.54,0,0,0-.91,5c0,3.13.52,5.09,1.62,5.88a3.63,3.63,0,0,0,2.16.62c2.53,0,3.6-1.93,3.6-6.55a14.66,14.66,0,0,0-.47-4.2,3.28,3.28,0,0,0-3.18-2.3A3.17,3.17,0,0,0,154.59,143.25Z" transform="translate(-24.3 -120.26)"/><path class="cls-2" d="M177.1,139.08v7h5.22v-7H186v18.14h-3.71v-8.09H177.1v8.09h-3.63V139.08Z" transform="translate(-24.3 -120.26)"/><path class="cls-2" d="M199.69,139.08l3.47,7.25a35.35,35.35,0,0,1,2,5.14c-.13-1.4-.26-3.73-.29-5l-.07-7.41h3.47v18.14h-3.81l-3.11-6.95c-1-2.27-2.11-4.82-2.45-5.94.13,1.48.16,3.62.18,5.14l.11,7.75h-3.53V139.08Z" transform="translate(-24.3 -120.26)"/><path class="cls-2" d="M228.15,143a7.8,7.8,0,0,0-4.23-1.39c-1.49,0-2.54.86-2.54,2.09,0,.94.5,1.41,2,1.83l2.19.6c3,.81,4.59,2.71,4.59,5.4,0,3.68-3,6.11-7.49,6.11A12.94,12.94,0,0,1,216.5,156l1.36-2.84a10.28,10.28,0,0,0,5,1.46c2.09,0,3.18-.86,3.18-2.48,0-1.17-.76-1.9-2.37-2.35l-2-.55a5.47,5.47,0,0,1-3.58-2.29,5.3,5.3,0,0,1-.75-2.77c0-3.31,2.66-5.61,6.49-5.61a10.64,10.64,0,0,1,6.06,1.83Z" transform="translate(-24.3 -120.26)"/><path class="cls-2" d="M253.16,148.06c0,4.09-1.41,7.17-4,8.61a6.92,6.92,0,0,1-3.63.83c-2.74,0-4.51-.75-5.9-2.55a10.78,10.78,0,0,1-2.08-6.74c0-3.91,1.48-7,4.1-8.48a8.11,8.11,0,0,1,3.75-.89C250.18,138.84,253.16,142.37,253.16,148.06Zm-10.67-4.81a10.53,10.53,0,0,0-.92,5c0,3.13.52,5.09,1.62,5.88a3.63,3.63,0,0,0,2.16.62c2.53,0,3.6-1.93,3.6-6.55a14.31,14.31,0,0,0-.47-4.2,3.27,3.27,0,0,0-3.18-2.3A3.15,3.15,0,0,0,242.49,143.25Z" transform="translate(-24.3 -120.26)"/><path class="cls-2" d="M265.41,139.08l3.47,7.25a35.35,35.35,0,0,1,2,5.14c-.13-1.4-.26-3.73-.28-5l-.08-7.41H274v18.14h-3.81l-3.11-6.95c-1-2.27-2.11-4.82-2.45-5.94.13,1.48.16,3.62.18,5.14l.11,7.75h-3.53V139.08Z" transform="translate(-24.3 -120.26)"/><path class="cls-3" d="M96.47,169h3.45a3.59,3.59,0,0,1,2.51.66,2,2,0,0,1,.84,1.63,2,2,0,0,1-1.63,2c1.36.37,2,1.11,2,2.31a2.56,2.56,0,0,1-2.68,2.53l-1.31,0H96.47Zm2,1.57v2.11h1.22a2,2,0,0,0,.89-.12,1.17,1.17,0,0,0,.52-.95,1.06,1.06,0,0,0-.58-.93,2.51,2.51,0,0,0-.86-.11Zm0,3.62v2.48h1.34a1.73,1.73,0,0,0,1-.21,1.34,1.34,0,0,0,.52-1.07,1.16,1.16,0,0,0-.74-1.12,2.55,2.55,0,0,0-.8-.08Z" transform="translate(-24.3 -120.26)"/><path class="cls-3" d="M105.39,169h2.1v6c0,.68,0,.84.18,1.09a1.49,1.49,0,0,0,1.39.63c.9,0,1.47-.39,1.56-1.06a5.15,5.15,0,0,0,0-.82V169h2.09v6.17a3.5,3.5,0,0,1-.16,1.44c-.27.73-1.27,1.73-3.47,1.73a3.9,3.9,0,0,1-3.28-1.23,2.49,2.49,0,0,1-.44-1.73Z" transform="translate(-24.3 -120.26)"/><path class="cls-3" d="M122,169.63,121,171a4.79,4.79,0,0,0-2.38-.7c-.84,0-1.43.43-1.43,1.05s.28.71,1.14.93l1.23.3c1.68.41,2.59,1.37,2.59,2.73,0,1.86-1.68,3.08-4.22,3.08a7.92,7.92,0,0,1-3.48-.83l.76-1.43a6.42,6.42,0,0,0,2.81.73c1.17,0,1.79-.43,1.79-1.25,0-.59-.43-1-1.34-1.19l-1.13-.27a3.16,3.16,0,0,1-2-1.16,2.46,2.46,0,0,1-.43-1.4c0-1.68,1.5-2.84,3.66-2.84A6.5,6.5,0,0,1,122,169.63Z" transform="translate(-24.3 -120.26)"/><path class="cls-3" d="M124.46,169h2.15v9.16h-2.15Z" transform="translate(-24.3 -120.26)"/><path class="cls-3" d="M129.39,169h2.28l2,3.67a16.67,16.67,0,0,1,1.12,2.59c-.07-.71-.15-1.88-.16-2.51l-.05-3.75h2v9.16h-2.15l-1.75-3.5c-.55-1.15-1.19-2.44-1.38-3,.08.75.09,1.83.11,2.6l.06,3.91h-2Z" transform="translate(-24.3 -120.26)"/><path class="cls-3" d="M139.24,169h5.82l-.26,1.5h-3.5v2.13h2.92v1.5h-2.89v2.45h3.86v1.58h-5.95Z" transform="translate(-24.3 -120.26)"/><path class="cls-3" d="M154,169.63l-1,1.32a4.79,4.79,0,0,0-2.38-.7c-.84,0-1.43.43-1.43,1.05s.28.71,1.13.93l1.24.3c1.67.41,2.58,1.37,2.58,2.73,0,1.86-1.67,3.08-4.21,3.08a8,8,0,0,1-3.49-.83l.77-1.43a6.38,6.38,0,0,0,2.8.73c1.18,0,1.8-.43,1.8-1.25,0-.59-.43-1-1.34-1.19l-1.13-.27a3.16,3.16,0,0,1-2-1.16,2.53,2.53,0,0,1-.42-1.4c0-1.68,1.5-2.84,3.66-2.84A6.44,6.44,0,0,1,154,169.63Z" transform="translate(-24.3 -120.26)"/><path class="cls-3" d="M163.16,169.63l-1,1.32a4.74,4.74,0,0,0-2.38-.7c-.83,0-1.42.43-1.42,1.05s.28.71,1.13.93l1.23.3c1.68.41,2.59,1.37,2.59,2.73,0,1.86-1.68,3.08-4.22,3.08a7.92,7.92,0,0,1-3.48-.83l.77-1.43a6.34,6.34,0,0,0,2.8.73c1.18,0,1.79-.43,1.79-1.25,0-.59-.42-1-1.33-1.19l-1.14-.27a3.16,3.16,0,0,1-2-1.16,2.45,2.45,0,0,1-.42-1.4c0-1.68,1.49-2.84,3.65-2.84A6.48,6.48,0,0,1,163.16,169.63Z" transform="translate(-24.3 -120.26)"/><path class="cls-3" d="M170.89,169h7.36l-.34,1.53h-2.44v7.63h-2.08v-7.63h-2.5Z" transform="translate(-24.3 -120.26)"/><path class="cls-3" d="M179.87,169h5.82l-.26,1.5h-3.5v2.13h2.92v1.5H182v2.45h3.86v1.58h-5.95Z" transform="translate(-24.3 -120.26)"/><path class="cls-3" d="M194.6,169.51l-.92,1.25a2.93,2.93,0,0,0-1.63-.51,2.21,2.21,0,0,0-1.74.79,3.84,3.84,0,0,0-.57,2.36,4.75,4.75,0,0,0,.42,2.45,2.19,2.19,0,0,0,2,1,2.91,2.91,0,0,0,1.55-.45l.2-.14.94,1.16a4.49,4.49,0,0,1-2.83.85,4.44,4.44,0,0,1-3.34-1.26,4.49,4.49,0,0,1-1.23-3.28,5.38,5.38,0,0,1,.69-2.85,4.75,4.75,0,0,1,6.49-1.4Z" transform="translate(-24.3 -120.26)"/><path class="cls-3" d="M196.59,169h2v3.56h2.93V169h2.09v9.16h-2.09v-4.08h-2.93v4.08h-2Z" transform="translate(-24.3 -120.26)"/><path class="cls-3" d="M206.5,169h2.28l2,3.67a16.48,16.48,0,0,1,1.11,2.59c-.07-.71-.14-1.88-.16-2.51l0-3.75h1.95v9.16h-2.14l-1.75-3.5c-.56-1.15-1.19-2.44-1.38-3,.07.75.08,1.83.1,2.6l.06,3.91h-2Z" transform="translate(-24.3 -120.26)"/><path class="cls-3" d="M220.18,168.86c2.71,0,4.39,1.78,4.39,4.66a4.53,4.53,0,0,1-2.28,4.35,4.3,4.3,0,0,1-2,.42,4,4,0,0,1-3.32-1.29,5.06,5.06,0,0,1-1.18-3.4,4.57,4.57,0,0,1,2.31-4.29A5,5,0,0,1,220.18,168.86Zm0,1.43a1.81,1.81,0,0,0-1.59.8,4.93,4.93,0,0,0-.51,2.51c0,1.58.31,2.55.91,3a2.19,2.19,0,0,0,1.22.32c1.42,0,2-1,2-3.31a6.49,6.49,0,0,0-.26-2.12A1.83,1.83,0,0,0,220.15,170.29Z" transform="translate(-24.3 -120.26)"/><path class="cls-3" d="M226.87,169H229v7.64h3.66l-.37,1.52h-5.39Z" transform="translate(-24.3 -120.26)"/><path class="cls-3" d="M238.16,168.86c2.72,0,4.39,1.78,4.39,4.66a4.52,4.52,0,0,1-2.27,4.35,4.34,4.34,0,0,1-2.05.42,4,4,0,0,1-3.32-1.29,5.05,5.05,0,0,1-1.17-3.4,4.56,4.56,0,0,1,2.3-4.29A5,5,0,0,1,238.16,168.86Zm0,1.43a1.81,1.81,0,0,0-1.59.8,4.93,4.93,0,0,0-.51,2.51c0,1.58.31,2.55.91,3a2.19,2.19,0,0,0,1.22.32c1.42,0,2-1,2-3.31a6.45,6.45,0,0,0-.27-2.12A1.82,1.82,0,0,0,238.13,170.29Z" transform="translate(-24.3 -120.26)"/><path class="cls-3" d="M252,169.89,251,171a3.44,3.44,0,0,0-2.13-.71,2.21,2.21,0,0,0-1.47.46c-.69.59-.86,1.58-.86,3a3.42,3.42,0,0,0,.76,2.61,2.42,2.42,0,0,0,1.6.52,2.61,2.61,0,0,0,1.16-.23v-2.08h-1.56l-.26-1.5h3.95v4.37a7.08,7.08,0,0,1-3.39.82,4.29,4.29,0,0,1-3.48-1.4,5.19,5.19,0,0,1,1-7.37,4.54,4.54,0,0,1,2.48-.64A5.19,5.19,0,0,1,252,169.89Z" transform="translate(-24.3 -120.26)"/><path class="cls-3" d="M254.46,169h2.14v9.16h-2.14Z" transform="translate(-24.3 -120.26)"/><path class="cls-3" d="M259.35,169h5.82l-.26,1.5h-3.5v2.13h2.93v1.5h-2.9v2.45h3.87v1.58h-6Z" transform="translate(-24.3 -120.26)"/><path class="cls-3" d="M274.13,169.63l-1,1.32a4.79,4.79,0,0,0-2.38-.7c-.84,0-1.43.43-1.43,1.05s.28.71,1.13.93l1.24.3c1.67.41,2.58,1.37,2.58,2.73,0,1.86-1.67,3.08-4.21,3.08a7.89,7.89,0,0,1-3.48-.83l.76-1.43a6.38,6.38,0,0,0,2.81.73c1.17,0,1.79-.43,1.79-1.25,0-.59-.43-1-1.34-1.19l-1.13-.27a3.13,3.13,0,0,1-2-1.16,2.46,2.46,0,0,1-.43-1.4c0-1.68,1.5-2.84,3.66-2.84A6.5,6.5,0,0,1,274.13,169.63Z" transform="translate(-24.3 -120.26)"/><path class="cls-4" d="M41.51,152.52H24.3L52.59,180.8v-17A13.17,13.17,0,0,1,41.51,152.52Z" transform="translate(-24.3 -120.26)"/><path class="cls-2" d="M67.77,150.77a13.19,13.19,0,0,1-11.21,13v17l30.27-30.27L56.56,120.26v17.49A13.19,13.19,0,0,1,67.77,150.77Z" transform="translate(-24.3 -120.26)"/><path class="cls-1" d="M52.59,137.75V120.26L24.3,148.54H41.58A13.19,13.19,0,0,1,52.59,137.75Z" transform="translate(-24.3 -120.26)"/></svg>